<?xml version="1.0" encoding="utf-8"?>
<!-- Generator: Adobe Illustrator 24.1.1, SVG Export Plug-In . SVG Version: 6.00 Build 0)  -->
<svg version="1.1" id="Layer_1" xmlns="http://www.w3.org/2000/svg" xmlns:xlink="http://www.w3.org/1999/xlink" x="0px" y="0px"
	 viewBox="0 0 512 512" style="enable-background:new 0 0 512 512;" xml:space="preserve">
<style type="text/css">
	.st0{fill:#1173B6;}
</style>
<g>
	<path class="st0" d="M318.1,61.8c-18.9-28.7-23.3-32.5-61.7-32.5h-0.4h-0.4c-38.4,0-42.6,3.8-61.7,32.5C176,88.8,0,411.1,0,420.1
		c0,13,3.4,25.4,15.5,42.9c12.3,17.7,33.7,27.6,49.2,11.9c10.5-10.6,123.5-205.2,178-278.8c6.5-9.2,20-9.2,26.7,0
		c54.5,73.6,167.4,268.2,178,278.8c15.5,15.7,36.8,5.8,49.2-11.9c12.1-17.5,15.5-29.9,15.5-42.9C511.8,411.1,335.8,88.6,318.1,61.8z
		"/>
</g>
</svg>
